<svg id="visual" viewBox="0 0 1000 700" width="900" height="600" xmlns="http://www.w3.org/2000/svg" xmlns:xlink="http://www.w3.org/1999/xlink" version="1.1"><g transform="translate(490.1080735204318 244.6486618693168)"><path d="M333.4 -295.7C435 -312.1 522.3 -209.8 550.1 -91.2C577.9 27.3 546.1 162.2 475.7 265.8C405.3 369.3 296.2 441.7 210.5 392.2C124.7 342.7 62.4 171.3 -60.2 138.4C-182.7 105.5 -365.5 211 -488.6 189.3C-611.7 167.6 -675.1 18.7 -620.7 -78.1C-566.3 -174.9 -394 -219.6 -270.9 -199.4C-147.8 -179.2 -73.9 -94.1 21 -119.1C115.9 -144.1 231.8 -279.3 333.4 -295.7" fill="#ffffff"></path></g></svg>