<svg width="74" height="74" viewBox="0 0 74 74" fill="none" xmlns="http://www.w3.org/2000/svg">
<path d="M60.8958 66.2916H47.0208C44.8918 66.2916 43.1666 64.5665 43.1666 62.4375V48.5625C43.1666 46.8589 41.7869 45.4791 40.0833 45.4791H33.9167C32.2131 45.4791 30.8333 46.8589 30.8333 48.5625V62.4375C30.8333 64.5665 29.1082 66.2916 26.9792 66.2916H13.1042C10.9751 66.2916 9.25 64.5665 9.25 62.4375V33.0117C9.25 29.4674 10.8749 26.1189 13.6576 23.9266L35.5678 6.66153C36.408 6.0017 37.592 6.0017 38.4306 6.66153L60.3439 23.9266C63.1266 26.1189 64.75 29.4658 64.75 33.0086V62.4375C64.75 64.5665 63.0248 66.2916 60.8958 66.2916Z" fill="#3B3B3B"/>
</svg>
